<?xml version="1.0"?>
<svg width="289.06668" height="521.84" xmlns="http://www.w3.org/2000/svg" xmlns:svg="http://www.w3.org/2000/svg">
 <g class="layer">
  <title>Layer 1</title>
  <g id="svg_1" transform="matrix(0 1.31285 -1.76401 0 399.993 -81.6299)" xmlns="http://www.w3.org/2000/svg">
   <metadata id="metadata8">image/svg+xml</metadata>

   <g id="g10" transform="matrix(1.33333 0 0 -1.33333 0 289.067)">
    <g id="g12" transform="translate(0 -5.68434e-14) scale(0.1 0.1)">
     <path d="m3217.03,893.39c-7.99,5.62 -15.69,9.28 -23.1,10.99c-7.4,1.7 -14.55,0.92 -21.47,-2.34c-6.91,-3.26 -13.66,-9.58 -20.26,-18.96c-4.2,-5.98 -2.76,-14.24 3.22,-18.45l55.22,-38.83c5.98,-4.21 14.24,-2.77 18.45,3.21c6.59,9.38 10.28,17.85 11.07,25.42c0.78,7.57 -0.85,14.54 -4.91,20.89c-4.05,6.35 -10.12,12.38 -18.22,18.07" fill="#fffbf7" fill-rule="nonzero" id="path14"/>
     <path d="m3340.41,1096.63c-3.03,-7.44 -7.51,-13.41 -13.42,-17.91c-3.88,-2.95 -8.16,-5.19 -12.84,-6.7c-3.86,-1.25 -7.87,1.57 -8.14,5.62l-0.82,12.53c-0.16,2.54 1.35,4.81 3.65,5.9c3.74,1.76 6.89,4.43 9.45,8.03c3.41,4.79 4.89,10.57 4.45,17.33c-0.48,7.27 -3.53,13.05 -9.16,17.32c-5.63,4.26 -12.41,6.14 -20.34,5.62c-8.19,-0.53 -14.54,-3.27 -19.05,-8.19c-4.51,-4.93 -6.53,-10.91 -6.08,-17.93c0.38,-5.85 2.15,-10.82 5.29,-14.93c2.35,-3.06 5.05,-5.42 8.11,-7.05c1.97,-1.06 3.31,-2.98 3.46,-5.21l0.84,-12.89c0.25,-3.84 -2.98,-7.01 -6.81,-6.69l-66.07,5.55c-3.11,0.26 -5.56,2.75 -5.76,5.86l-4.17,63.97c-0.23,3.47 2.4,6.47 5.87,6.69l9.27,0.61c3.47,0.22 6.47,-2.41 6.7,-5.88l2.19,-33.64c0.65,-9.89 8.19,-17.94 18.01,-19.22c5.1,-0.66 8.89,4.61 6.63,9.23c-2.34,4.81 -3.7,10.26 -4.1,16.37c-0.64,9.75 1.01,18.02 4.94,24.8c3.93,6.79 9.33,12.1 16.19,15.95c6.87,3.84 14.46,6.03 22.78,6.57c9.49,0.62 18.07,-0.87 25.75,-4.49c7.67,-3.61 13.9,-8.94 18.67,-16.01c4.77,-7.06 7.46,-15.41 8.09,-25.03c0.66,-10.01 -0.54,-18.73 -3.58,-26.18zm-4.67,-88.07l-24.59,-78.25c-0.61,-1.92 -2.65,-2.99 -4.57,-2.39l-123.55,38.83c-1.91,0.6 -2.98,2.65 -2.38,4.57l24.59,78.25c0.61,1.91 2.65,2.98 4.57,2.38l12.25,-3.85c1.92,-0.61 2.99,-2.65 2.39,-4.57l-12.56,-39.96c-3.11,-9.89 2.38,-20.42 12.27,-23.52c9.88,-3.11 20.41,2.38 23.52,12.27l10.8,34.37c0.6,1.92 2.65,2.98 4.56,2.38l11.7,-3.68c1.92,-0.6 2.98,-2.64 2.38,-4.56l-10.51,-33.44c-3.27,-10.4 2.52,-21.48 12.91,-24.75c10.4,-3.26 21.48,2.52 24.75,12.92l12.27,39.03c0.6,1.92 2.64,2.98 4.56,2.38l12.26,-3.85c1.92,-0.6 2.98,-2.65 2.38,-4.56zm-72.59,-153.69c-1.32,-11.74 -6.59,-24.16 -15.81,-37.26l-20.58,-29.27c-1.16,-1.65 -3.43,-2.04 -5.07,-0.89l-105.94,74.5c-1.64,1.16 -2.04,3.43 -0.88,5.07l20.58,29.27c9.22,13.11 19.13,22.27 29.72,27.48c10.59,5.21 21.51,6.93 32.76,5.15c11.25,-1.79 22.53,-6.64 33.82,-14.59c11.3,-7.94 19.68,-16.91 25.17,-26.89c5.48,-9.99 7.55,-20.84 6.23,-32.57zm-157.17,170.62c-13.69,-57.62 -49.6,-104.2 -96.04,-124.61c-27.69,-12.16 -55.62,-18.21 -82.28,-18.21c-31.77,0 -61.74,8.59 -87.38,25.64c-37.19,24.74 -59.3,63.67 -59.56,104.6c-2.83,17.41 -13.64,105.06 42.08,172.39c34.79,42.05 90.95,69.21 143.07,69.21c0.04,0 0.06,0 0.09,0c40.19,-0.02 75.55,-16.06 99.57,-45.17c40.92,-49.57 56.04,-118.3 40.45,-183.85zm60.47,229.96c1.51,10.67 6.03,20.5 13.59,29.49c7.56,8.99 17.63,16.47 30.23,22.45c12.71,6.03 24.91,9.11 36.59,9.25c11.69,0.14 22.14,-2.58 31.35,-8.16c9.21,-5.58 16.52,-14.08 21.93,-25.5c5.42,-11.41 7.38,-22.45 5.88,-33.11c-1.51,-10.67 -6,-20.48 -13.5,-29.44c-7.5,-8.97 -17.61,-16.47 -30.32,-22.5c-12.59,-5.97 -24.76,-9.05 -36.51,-9.21c-11.74,-0.17 -22.22,2.54 -31.43,8.12c-9.21,5.58 -16.52,14.08 -21.93,25.5c-5.42,11.41 -7.38,22.45 -5.88,33.11zm140.23,219.61c-91.06,93.43 -245.92,151.82 -385.62,145.17c-87.7,-4.15 -213.32,-35.27 -313.79,-160l-1.78,-2.01c-49.13,-49.86 -91.25,-116.77 -131.97,-181.49c-67.32,-106.94 -125.45,-199.3 -206.04,-201.33c-0.89,-0.02 -1.8,-0.03 -2.69,-0.03c-101.7,-0.01 -157.3,144.79 -216.15,298.02c-49.93,130 -106.52,277.33 -186.7,310.36c-26.26,10.81 -54.63,9.06 -86.74,-5.37c-73.63,-33.09 -129.53,-101.54 -166.15,-203.45l-16.1,-44.8c-3.18,-8.86 -15.73,-8.8 -18.83,0.08l-15.69,44.95c-29.89,85.61 -64.73,170.04 -104.42,198.06c-13.27,9.36 -53.33,27.6 -84.67,11.36c-28.5,-14.77 -77.2,-85.1 -77.2,-291.3c0,-317.11 -34.76,-495.24 -109.39,-560.58c-26.4,-23.11 -57.42,-32.47 -92.19,-27.84c-150.88,20.12 -150.74,260.63 -150.59,493.23l0.01,20.57c0,240.56 -31.89,370.25 -225.75,372.06c-59.11,0.71 -111.19,-44.01 -149.69,-103.11c-57.35,-88.04 -89.01,-241.57 -86.86,-421.23c1.97,-164.11 32.27,-330.25 79.09,-433.56c57.01,-125.82 123.56,-196.67 209.44,-222.97c88.8,-27.18 196.36,-3.81 289.87,22.66c146.86,41.57 197.74,12.52 246.95,-15.55c32.53,-18.57 62.58,-40.05 128.37,-40.05c56.07,0 100.56,54.63 130.9,154.57l18.9,62.24c2.99,9.87 17.16,9.28 19.32,-0.8l15,-69.81c0.83,-4.68 19.96,-141.02 153.6,-144.54c69.02,-1.82 87.15,37.03 121.07,140.44c23.15,70.59 47.09,143.59 109.98,162.45c6.09,1.83 12.09,2.7 17.98,2.7c51.26,0 95.95,-65.7 146.86,-140.57c51.43,-75.62 115.59,-169.77 174.4,-166.6c36.62,1.95 75.48,40.89 115.5,115.73c16.35,30.6 33.57,64.11 51.17,99.63l11.51,23.24c3.21,6.48 12.02,7.51 16.63,1.95l16.57,-19.95c112.66,-135.63 335.43,-235.76 592.52,-71.53c162.75,103.97 268.15,268.23 289.2,450.66c17.65,152.99 -28.21,298.19 -125.83,398.34" fill="#fffbf7" fill-rule="nonzero" id="path16"/>
     <path d="m3215.13,1214.64c10.53,-2.15 22.56,0 36.1,6.42c13.53,6.42 22.8,14.39 27.81,23.9c5,9.51 5.27,18.97 0.8,28.39c-4.41,9.3 -11.9,15.04 -22.46,17.24c-10.56,2.2 -22.61,0.09 -36.14,-6.33c-13.53,-6.42 -22.79,-14.42 -27.77,-23.99c-4.97,-9.57 -5.26,-19 -0.84,-28.3c4.47,-9.42 11.97,-15.2 22.5,-17.33" fill="#fffbf7" fill-rule="nonzero" id="path18"/>
    </g>
   </g>
  </g>
 </g>
</svg>